<svg xmlns="http://www.w3.org/2000/svg" width="160" height="160" viewBox="0 0 2048 2048">
  <defs>
    <linearGradient id="coral" x1="0.5" y1="0" x2="0.5" y2="1">
      <stop offset="0%" stop-color="#F87171"/>
      <stop offset="50%" stop-color="#F56B5E"/>
      <stop offset="100%" stop-color="#9F1239"/>
    </linearGradient>
  </defs>
<g transform="translate(0.000000,2048.000000) scale(0.100000,-0.100000)"
fill="url(#coral)" stroke="none">
<path d="M10192 17723 c-49 -10 -50 -16 -54 -505 -1 -252 -4 -458 -6 -458 -1
0 -14 7 -28 16 -59 39 -99 151 -139 390 -27 163 -39 198 -75 209 -28 9 -68
-18 -76 -52 -11 -41 12 -163 53 -285 33 -101 127 -301 223 -476 l40 -73 0
-160 c0 -147 -1 -159 -18 -159 -37 0 -113 61 -198 160 -157 180 -176 222 -204
446 -24 189 -59 305 -106 352 -40 40 -73 40 -92 -1 -13 -27 -11 -37 26 -130
22 -56 45 -126 52 -156 22 -94 -4 -262 -41 -269 -23 -4 -75 42 -105 93 -14 24
-36 79 -50 122 -70 214 -145 297 -194 211 -13 -25 -13 -34 2 -93 55 -209 177
-362 370 -466 92 -49 202 -145 407 -353 l154 -156 -6 -106 c-4 -59 -7 -386 -7
-727 l0 -620 -64 89 c-93 128 -204 322 -245 428 l-36 91 0 220 c-1 147 -5 237
-14 270 -9 34 -11 80 -6 145 7 118 -6 172 -76 312 -60 121 -153 251 -176 246
-26 -5 -57 -55 -56 -92 2 -70 36 -123 144 -222 68 -62 90 -128 100 -299 9
-152 4 -255 -15 -281 -11 -15 -16 -15 -41 -3 -16 8 -47 37 -68 64 -44 58 -139
248 -190 380 -42 110 -90 207 -111 224 -22 18 -49 10 -64 -21 -10 -23 -9 -37
13 -108 48 -149 115 -303 235 -535 119 -231 200 -409 200 -438 0 -28 -116 19
-159 64 -49 53 -108 151 -129 218 -27 86 -107 152 -150 124 -48 -30 -39 -61
53 -178 31 -38 87 -116 126 -173 84 -123 101 -139 154 -152 149 -37 155 -43
251 -233 43 -84 116 -222 164 -307 48 -85 104 -188 124 -227 l36 -73 0 -570
c0 -313 -3 -570 -7 -569 -11 1 -129 137 -169 195 -37 54 -94 190 -94 226 0 13
-14 104 -30 203 -29 179 -30 181 -94 306 -78 154 -84 172 -96 329 -13 153 -31
255 -76 428 -43 168 -55 192 -94 192 -56 0 -63 -52 -25 -179 54 -183 81 -415
52 -455 -11 -15 -17 -11 -63 46 -72 89 -78 99 -143 253 -33 76 -66 146 -75
157 -39 45 -116 -6 -116 -78 0 -47 66 -212 139 -348 28 -53 51 -100 51 -104 0
-4 -25 -5 -56 -4 -62 4 -94 -14 -94 -53 0 -52 68 -101 205 -145 55 -18 80 -33
116 -70 61 -62 75 -106 98 -320 22 -190 23 -196 71 -315 18 -44 61 -168 97
-275 78 -235 108 -308 179 -442 30 -57 69 -132 87 -168 l32 -65 3 -412 c2
-259 0 -413 -6 -413 -11 0 -71 78 -120 156 -35 55 -163 318 -271 556 -38 84
-96 207 -129 273 -67 136 -87 206 -78 273 4 26 11 110 16 187 5 77 19 176 30
219 28 111 27 161 -5 182 -58 38 -88 -9 -104 -162 -10 -96 -32 -220 -46 -256
-10 -27 -42 -22 -62 9 -16 25 -18 63 -19 443 -2 459 -7 553 -36 582 -23 23
-40 23 -69 -1 -22 -18 -23 -22 -11 -53 6 -19 12 -46 12 -60 0 -14 10 -57 21
-94 28 -89 27 -149 -5 -265 -15 -52 -29 -134 -33 -182 -3 -48 -11 -91 -16 -94
-17 -10 -119 107 -163 188 -67 121 -104 243 -115 378 -12 154 -26 272 -34 294
-9 23 -46 22 -72 -3 -32 -30 -46 -117 -40 -250 8 -173 48 -313 148 -513 66
-130 122 -214 262 -388 168 -208 213 -291 243 -447 18 -93 10 -148 -28 -185
-47 -48 -65 -36 -203 128 -51 61 -133 151 -181 200 -144 146 -237 281 -279
402 -32 92 -45 195 -52 406 -7 215 -16 233 -90 187 -46 -28 -60 -79 -40 -151
83 -308 88 -341 64 -389 -37 -74 -109 3 -181 192 -55 146 -88 188 -149 188
-49 0 -97 -60 -97 -122 0 -44 20 -73 142 -206 77 -84 128 -130 203 -180 126
-85 159 -130 214 -294 22 -67 38 -125 34 -131 -21 -34 -202 40 -337 139 -97
70 -130 85 -196 91 -101 10 -171 -31 -173 -101 -1 -48 22 -70 107 -102 39 -15
91 -37 116 -49 84 -42 236 -94 306 -105 51 -8 100 -8 194 1 120 12 127 11 174
-9 35 -16 80 -55 165 -143 64 -67 218 -226 342 -353 124 -127 246 -258 271
-291 196 -260 297 -523 338 -890 15 -126 24 -1171 15 -1650 l-7 -400 -61 120
c-62 124 -154 358 -188 480 -25 93 -24 154 6 250 32 105 39 163 23 195 -28 52
-75 34 -139 -54 l-29 -39 -15 36 c-26 63 -45 266 -60 647 l-7 155 66 63 c85
81 108 126 113 222 11 202 -114 199 -174 -4 -51 -173 -90 -131 -103 113 -6
123 -9 136 -29 152 -30 25 -55 11 -71 -37 -20 -61 -7 -269 25 -404 41 -173 24
-280 -43 -280 -54 0 -113 88 -132 197 -6 34 -9 133 -8 220 3 172 -2 193 -56
229 -31 20 -59 7 -82 -38 -17 -33 -16 -105 2 -300 9 -86 -1 -88 -85 -13 -44
39 -70 55 -90 55 -66 0 -40 -82 41 -134 30 -19 71 -53 92 -77 35 -38 37 -43
22 -54 -19 -15 -33 -60 -28 -92 2 -12 16 -36 32 -53 34 -36 79 -40 128 -10
l33 20 45 -36 c72 -60 138 -160 170 -263 21 -63 30 -251 15 -279 -15 -28 -36
-28 -56 1 -59 83 -192 291 -215 337 -38 75 -63 97 -95 82 -54 -25 -34 -100 58
-212 24 -30 87 -127 139 -215 53 -88 181 -304 285 -480 321 -540 443 -764 466
-858 10 -38 12 -115 9 -286 l-4 -234 -90 179 c-124 247 -159 303 -381 597
-256 340 -323 453 -437 736 -105 260 -113 275 -276 521 -167 254 -252 353
-418 491 -19 16 58 114 220 279 161 165 204 218 204 255 0 21 -42 19 -88 -4
-46 -24 -107 -87 -161 -168 -59 -89 -100 -105 -101 -38 0 62 139 285 250 400
42 44 93 105 112 135 19 30 42 61 51 69 9 7 54 17 99 22 155 18 165 20 183 33
26 18 13 61 -22 74 -16 6 -59 12 -96 14 -46 3 -71 9 -78 19 -15 24 -10 81 16
164 35 112 42 187 21 220 -33 51 -72 22 -81 -62 -22 -208 -46 -283 -109 -349
-32 -33 -50 -44 -73 -44 -74 0 -87 76 -47 275 27 133 28 154 29 412 0 287 -4
311 -43 287 -47 -29 -57 -127 -27 -256 24 -99 13 -181 -56 -443 -89 -335 -120
-435 -138 -435 -12 0 -53 156 -54 200 0 27 10 70 26 107 47 110 61 286 28 358
-17 39 -72 95 -92 95 -22 0 -49 -22 -49 -39 0 -10 6 -36 14 -57 7 -22 16 -60
20 -86 7 -47 7 -47 -28 -62 -75 -31 -100 -152 -64 -321 41 -195 52 -277 53
-380 0 -93 -5 -126 -29 -210 -16 -55 -39 -122 -50 -150 l-21 -50 -113 230
c-258 528 -290 619 -247 708 9 18 41 65 73 104 53 67 132 206 147 261 11 40
-25 25 -91 -38 -63 -61 -81 -69 -102 -48 -19 19 -14 58 14 118 14 30 32 79 40
109 16 63 29 81 58 81 29 0 66 27 66 48 0 10 -9 34 -20 55 l-20 37 40 62 c49
76 54 125 14 165 -22 22 -32 25 -67 20 -83 -11 -117 -89 -102 -230 6 -58 4
-69 -23 -123 -37 -71 -143 -226 -158 -231 -25 -8 -47 51 -55 147 -5 52 -16
126 -25 164 -35 141 -12 233 171 696 61 157 118 302 124 323 37 113 111 197
258 295 158 104 193 151 193 262 0 57 -22 90 -60 90 -22 0 -35 -10 -63 -48
-19 -27 -70 -80 -113 -118 -99 -87 -231 -194 -238 -194 -3 0 -6 14 -6 30 0 21
15 49 49 93 64 81 204 285 250 363 61 105 135 160 426 318 251 136 286 184
303 420 6 92 9 100 34 119 24 18 34 19 115 10 108 -12 150 -3 186 37 42 47 38
98 -18 202 -61 116 -95 142 -136 109 -19 -16 -23 -28 -23 -90 -1 -67 -3 -75
-29 -97 -32 -28 -46 -30 -73 -10 -25 19 -26 115 -1 281 30 202 36 225 77 315
47 103 54 174 20 205 -31 28 -66 10 -131 -70 -31 -39 -63 -70 -70 -70 -10 0
-18 25 -27 80 -6 44 -21 136 -32 205 -35 223 -36 288 -6 430 28 137 43 349 32
442 -12 99 -70 154 -117 112 -30 -27 -33 -76 -10 -162 36 -135 25 -342 -19
-342 -9 0 -25 49 -80 247 -52 190 -71 293 -79 431 -7 125 -9 134 -33 159 -30
30 -76 35 -104 12 -29 -24 -44 -75 -44 -152 0 -88 4 -102 109 -369 84 -214
108 -298 97 -342 -17 -67 -67 -12 -140 153 -70 155 -107 216 -149 241 -94 58
-138 -31 -75 -153 29 -58 85 -140 196 -287 103 -137 113 -153 148 -247 37 -99
53 -214 74 -538 11 -165 29 -381 40 -480 24 -216 25 -330 5 -410 -17 -64 -44
-110 -65 -110 -20 0 -47 61 -69 155 -10 47 -27 110 -36 140 -14 43 -19 114
-24 335 -8 326 -11 335 -126 563 -82 161 -88 199 -51 321 16 52 26 108 26 147
0 56 -3 65 -26 83 -32 25 -57 27 -78 6 -12 -13 -14 -31 -9 -95 7 -98 -3 -102
-65 -30 -47 54 -60 59 -85 32 -29 -32 -19 -73 47 -207 36 -71 101 -207 145
-302 72 -154 81 -178 81 -231 0 -84 -31 -105 -87 -58 -70 59 -271 399 -357
604 -48 115 -126 139 -126 38 0 -72 159 -386 282 -555 70 -96 94 -152 78 -181
-15 -28 -62 -25 -113 7 -88 55 -253 236 -351 385 -45 68 -64 78 -89 46 -22
-27 -17 -80 10 -115 10 -12 51 -66 92 -120 40 -54 99 -124 130 -157 68 -71
182 -148 254 -172 79 -26 122 -50 152 -86 70 -82 108 -236 107 -434 -1 -127
-12 -174 -48 -205 -54 -46 -100 -24 -145 67 -31 63 -34 74 -30 144 11 186 8
221 -26 292 -41 86 -64 102 -123 85 -90 -26 -113 -121 -70 -299 29 -119 26
-156 -15 -238 -19 -38 -35 -77 -35 -86 0 -8 -6 -14 -12 -12 -24 8 -51 69 -94
210 -23 78 -50 148 -58 156 -26 26 -67 5 -94 -48 -21 -39 -23 -54 -18 -117 7
-89 48 -218 90 -280 75 -112 71 -99 69 -218 -2 -112 -20 -210 -38 -210 -14 0
-32 99 -40 224 -9 122 -17 151 -43 151 -31 0 -51 -32 -63 -106 -18 -101 2
-424 37 -609 22 -116 27 -177 31 -360 6 -258 -6 -344 -61 -458 -50 -102 -108
-198 -119 -194 -28 9 -113 290 -151 502 -57 310 -71 480 -71 895 0 321 3 404
18 500 40 256 93 390 199 505 87 94 118 142 118 183 0 137 -106 63 -164 -115
-23 -71 -39 -83 -71 -53 -40 37 -48 88 -42 260 5 135 12 187 56 400 28 135 54
282 57 327 6 72 4 86 -15 124 l-22 42 29 31 c40 42 57 78 76 163 31 139 13
220 -47 211 -20 -3 -23 -11 -29 -76 -10 -100 -24 -146 -54 -182 -31 -36 -54
-38 -90 -6 -24 20 -28 32 -32 91 -3 37 1 100 8 140 15 87 5 118 -38 113 -39
-4 -63 -60 -69 -161 -6 -88 4 -134 52 -262 24 -63 27 -83 26 -203 0 -120 -3
-139 -25 -188 -14 -30 -29 -54 -34 -54 -14 0 -58 70 -70 110 -16 51 -59 349
-67 455 -9 125 -44 345 -61 377 -30 59 -101 78 -129 35 -22 -34 -32 -268 -16
-367 21 -123 40 -191 77 -262 19 -37 34 -79 34 -93 0 -83 -139 -5 -195 109
-13 28 -36 94 -49 146 -45 175 -72 215 -139 208 -52 -5 -49 -49 17 -227 31
-83 56 -158 56 -168 0 -10 -9 -24 -20 -31 -42 -26 -14 -101 51 -141 33 -20
184 -164 252 -241 57 -64 94 -132 103 -191 6 -34 5 -41 -7 -34 -66 39 -127 91
-271 232 -173 169 -243 223 -289 223 -29 0 -43 -12 -53 -47 -14 -43 22 -91
131 -175 135 -104 148 -122 166 -232 13 -71 21 -94 44 -118 36 -37 70 -34 99
9 l21 32 39 -29 c102 -74 173 -215 194 -383 17 -140 29 -479 19 -529 -20 -92
-35 -84 -133 60 -70 104 -117 197 -144 284 -29 91 -32 262 -8 336 16 48 17 55
2 77 -9 13 -35 33 -60 43 -42 19 -44 22 -60 89 -19 78 -36 107 -86 150 -90 78
-146 69 -180 -28 -12 -34 -11 -39 13 -70 14 -19 47 -53 74 -75 137 -118 132
-111 164 -222 20 -70 29 -120 27 -155 l-3 -52 -39 -3 c-38 -3 -43 0 -116 75
-93 96 -147 200 -186 354 -30 125 -53 169 -87 169 -30 0 -57 -29 -57 -60 0
-36 77 -254 121 -345 43 -89 149 -220 222 -275 39 -29 50 -45 68 -100 12 -36
61 -148 109 -250 48 -102 94 -201 102 -220 8 -19 50 -110 92 -202 l77 -166 30
-249 c43 -361 101 -655 163 -832 34 -94 12 -140 -52 -107 -66 34 -108 103
-235 386 -36 80 -92 201 -125 270 -58 120 -145 331 -172 415 -7 22 -35 87 -62
145 -164 349 -260 621 -332 942 -36 163 -100 515 -131 720 -14 97 -35 207 -45
245 -31 108 -77 153 -102 98 -10 -22 -6 -43 31 -153 33 -97 42 -139 39 -176
-6 -94 -46 -63 -109 86 -50 116 -77 151 -117 146 -24 -3 -27 -7 -30 -47 -2
-31 6 -72 27 -130 43 -124 47 -151 24 -151 -21 0 -55 21 -98 61 -60 56 -119
57 -144 2 -28 -62 -5 -95 98 -144 167 -79 232 -141 305 -287 38 -76 86 -224
86 -267 l0 -37 -37 7 c-57 10 -149 63 -190 108 -19 22 -51 74 -69 116 -59 132
-78 165 -105 180 -38 21 -77 7 -95 -34 -16 -40 -8 -69 35 -124 56 -72 64 -97
58 -189 l-6 -85 32 -32 c20 -20 57 -40 102 -55 80 -26 235 -101 281 -136 71
-53 133 -193 155 -349 10 -73 10 -88 -2 -100 -13 -13 -19 -12 -52 10 -20 14
-55 50 -77 80 -40 55 -65 66 -88 43 -22 -22 -13 -73 24 -133 45 -76 80 -119
239 -290 184 -199 237 -261 284 -334 92 -143 22 -182 -164 -92 -97 47 -173
114 -337 295 -144 160 -158 196 -183 473 -25 269 -46 343 -100 343 -44 0 -58
-38 -63 -167 -5 -113 -5 -114 -24 -96 -40 36 -79 104 -133 231 -30 72 -55 134
-55 139 0 6 19 15 42 22 63 19 98 60 98 113 0 70 -50 118 -122 118 -94 0 -140
-113 -118 -289 6 -47 22 -116 36 -154 13 -39 24 -75 24 -79 0 -15 -60 32 -153
119 -92 87 -119 99 -150 65 -21 -23 -22 -54 -3 -90 18 -34 191 -187 313 -275
145 -107 184 -163 128 -189 -36 -16 -134 4 -265 53 -58 22 -123 42 -145 45
-72 9 -121 -38 -73 -70 13 -8 84 -34 158 -56 241 -74 393 -176 352 -236 -17
-26 -72 -40 -140 -35 -16 0 -51 29 -101 81 -69 72 -81 80 -113 80 -26 0 -40
-6 -47 -18 -12 -23 -7 -31 76 -117 37 -39 82 -93 98 -120 26 -43 35 -50 65
-53 19 -2 79 11 134 28 104 32 180 38 237 18 50 -17 113 -62 149 -108 28 -35
31 -45 22 -65 -6 -14 -29 -30 -58 -41 -43 -16 -56 -17 -153 -5 -58 7 -143 15
-187 18 -79 5 -82 5 -89 -18 -11 -33 33 -69 314 -257 424 -284 522 -335 753
-388 188 -44 305 -82 427 -142 179 -87 321 -200 321 -256 0 -54 -78 -92 -167
-83 -103 11 -196 67 -358 218 -111 104 -128 114 -251 150 -60 17 -183 58 -274
92 -173 63 -225 73 -243 46 -31 -49 30 -101 163 -139 41 -12 98 -29 127 -37
70 -21 133 -75 133 -113 0 -46 -27 -55 -175 -55 -110 0 -136 -3 -170 -20 -25
-13 -41 -28 -43 -42 -8 -53 103 -76 328 -67 190 7 263 -6 399 -71 218 -105
368 -233 485 -412 76 -117 248 -414 288 -498 52 -110 28 -182 -64 -192 -41 -5
-56 -1 -114 32 -37 20 -94 58 -126 83 -33 26 -118 92 -190 147 -73 55 -145
117 -162 139 l-31 38 -1 167 c-1 91 -2 174 -3 184 -2 25 -49 41 -77 26 -21
-11 -22 -19 -26 -154 -1 -79 -6 -147 -10 -151 -14 -14 -50 31 -121 150 -39 66
-83 133 -98 150 -24 27 -30 29 -55 21 -16 -6 -38 -24 -49 -41 l-21 -31 -32 25
c-40 31 -91 24 -122 -15 -45 -58 -42 -67 66 -172 86 -84 114 -105 212 -155
120 -61 182 -107 182 -135 0 -19 -31 -52 -67 -70 -30 -16 -94 -14 -136 4 -49
20 -80 19 -101 -4 -24 -27 -17 -70 16 -94 45 -33 121 -34 198 -2 36 15 93 30
126 35 61 8 150 -2 166 -18 5 -5 15 -82 24 -171 8 -90 21 -175 28 -189 8 -15
39 -56 70 -91 85 -98 96 -174 34 -226 -39 -33 -71 -32 -176 9 -131 51 -349
153 -396 186 -63 43 -147 138 -181 205 -28 55 -30 71 -35 191 -4 92 -9 136
-19 148 -49 59 -91 34 -91 -55 0 -107 -30 -136 -84 -82 -47 47 -59 115 -53
307 4 140 10 188 31 266 28 104 32 155 14 166 -12 8 -32 -14 -61 -66 -10 -18
-20 -31 -22 -28 -3 3 -24 97 -48 209 -23 112 -47 213 -53 223 -9 14 -18 17
-37 12 -34 -8 -42 -48 -28 -152 19 -152 22 -240 12 -340 -6 -55 -14 -112 -19
-125 -9 -23 -10 -23 -30 16 -30 59 -61 170 -69 249 -9 79 -29 104 -60 73 -14
-14 -18 -33 -17 -85 1 -73 26 -156 106 -342 56 -128 69 -167 104 -295 39 -143
93 -263 162 -358 81 -112 102 -156 102 -215 0 -83 -47 -124 -118 -101 -48 15
-310 156 -340 183 -51 45 -94 165 -146 401 -64 295 -82 550 -51 730 20 112 86
315 125 382 20 36 56 73 108 113 42 34 92 80 109 103 48 62 93 184 93 252 0
50 -3 57 -26 67 -24 11 -29 9 -49 -14 -12 -14 -26 -43 -30 -65 -9 -48 -67
-176 -101 -220 -70 -93 -108 13 -102 288 3 137 1 160 -14 175 -23 23 -66 21
-91 -5 -21 -20 -22 -34 -28 -249 -8 -285 -53 -608 -85 -619 -12 -4 -62 109
-135 302 -37 98 -42 122 -46 220 -5 115 -18 155 -51 155 -31 0 -42 -22 -42
-84 1 -80 21 -187 59 -314 40 -136 117 -507 124 -602 4 -43 1 -107 -7 -150
l-12 -75 -37 50 c-49 66 -110 185 -196 381 -39 89 -100 224 -137 300 -105 221
-107 228 -106 324 5 338 4 367 -11 425 -9 32 -15 60 -14 62 2 1 36 -32 77 -73
119 -121 177 -154 292 -168 69 -9 131 6 165 40 22 23 25 31 19 72 -7 50 -29
92 -50 92 -7 0 -21 -9 -31 -20 -23 -26 -60 -25 -86 1 -30 30 -23 112 15 169
l27 41 -25 44 c-51 86 -116 109 -174 60 -38 -32 -45 -63 -27 -115 21 -59 20
-170 -1 -170 -8 0 -45 31 -82 69 -95 98 -133 112 -187 69 l-28 -22 8 -90 c5
-50 9 -124 9 -164 1 -66 -2 -76 -23 -93 -28 -23 -59 -24 -89 -3 -44 31 -54 68
-72 291 -20 231 -29 263 -75 263 -37 0 -45 -28 -45 -159 0 -67 -4 -121 -9
-121 -14 0 -65 86 -107 180 -72 161 -118 230 -154 230 -28 0 -50 -34 -50 -76
0 -67 25 -137 84 -237 83 -141 118 -220 114 -259 -3 -33 -3 -33 -55 -32 -57 2
-108 27 -182 89 -50 41 -75 44 -96 11 -12 -18 -13 -29 -5 -52 18 -47 58 -81
175 -151 313 -188 450 -307 521 -453 23 -47 45 -96 49 -110 6 -22 3 -21 -36
16 -48 45 -112 94 -122 94 -13 0 -7 -58 14 -121 48 -150 137 -298 210 -350 25
-18 45 -23 85 -22 l53 1 31 -66 c45 -94 70 -169 70 -209 0 -30 -3 -33 -29 -33
-43 0 -135 67 -237 172 -208 215 -308 438 -287 639 5 55 4 59 -26 89 -22 23
-38 30 -58 28 -24 -2 -29 -8 -31 -36 -2 -18 4 -64 12 -102 17 -75 20 -110 9
-110 -13 0 -74 99 -145 237 -72 138 -122 197 -161 191 -54 -8 -20 -131 70
-255 119 -165 183 -263 257 -391 158 -277 260 -392 521 -587 243 -180 328
-274 477 -518 105 -172 111 -183 103 -207 -10 -30 -44 -25 -118 20 -37 22 -95
53 -129 67 -306 132 -654 409 -812 645 -30 46 -97 165 -149 263 -112 216 -153
283 -385 640 -68 104 -85 144 -137 328 -50 176 -73 220 -109 215 -37 -5 -32
-63 23 -256 74 -261 78 -312 24 -312 -54 0 -110 52 -187 175 -70 110 -100 128
-132 80 -16 -25 -16 -28 25 -110 54 -108 115 -164 259 -234 132 -65 210 -120
303 -214 75 -76 180 -225 200 -284 9 -28 8 -38 -6 -60 -16 -23 -21 -25 -73
-21 -51 5 -60 9 -93 46 -20 23 -44 42 -53 42 -19 0 -36 -30 -36 -64 0 -61 -81
-12 -135 80 -59 101 -70 109 -105 74 -30 -30 -25 -48 33 -136 28 -44 66 -112
82 -152 34 -83 29 -82 135 -36 129 56 311 29 349 -51 8 -16 18 -68 21 -115 10
-136 26 -154 215 -250 114 -58 195 -134 195 -182 0 -43 -15 -58 -60 -58 -47 1
-131 36 -247 106 -81 48 -130 90 -297 253 -150 146 -228 214 -305 265 -125 84
-200 152 -299 271 -86 104 -103 117 -140 113 -23 -3 -27 -8 -30 -39 -3 -41
-24 -18 229 -265 90 -88 183 -175 207 -193 57 -44 71 -70 46 -88 -24 -18 -71
-10 -138 24 -35 17 -93 68 -182 160 -116 119 -134 134 -152 124 -46 -25 -33
-73 35 -127 106 -85 193 -198 193 -251 0 -33 -34 -30 -136 12 -130 54 -234 46
-234 -18 0 -34 48 -51 164 -58 307 -19 666 -77 666 -108 0 -14 -82 -33 -175
-41 -49 -4 -110 -15 -134 -24 -24 -9 -62 -16 -86 -16 -54 0 -169 30 -268 69
-85 34 -147 40 -171 15 -22 -21 -20 -46 5 -78 29 -36 40 -41 167 -70 62 -14
150 -41 195 -61 46 -19 94 -35 107 -35 14 0 31 -4 38 -9 18 -11 -42 -59 -129
-103 -67 -35 -84 -63 -58 -94 18 -21 38 -15 225 76 115 55 182 95 227 133 88
74 114 82 213 61 150 -30 304 -106 304 -149 0 -19 -72 -59 -140 -79 -30 -9
-131 -23 -225 -32 -175 -15 -215 -27 -215 -63 0 -10 10 -26 21 -37 18 -16 36
-19 128 -18 193 2 432 48 579 112 91 39 119 46 188 50 76 4 93 1 245 -46 375
-116 929 -265 1214 -328 155 -34 347 -37 545 -8 179 25 493 26 627 1 277 -51
511 -173 684 -354 136 -144 174 -193 162 -211 -21 -34 -98 -27 -254 23 -336
108 -355 117 -553 267 -195 148 -343 212 -401 174 -46 -31 -29 -85 62 -191 27
-32 31 -41 18 -43 -9 -2 -82 12 -163 32 -169 41 -283 61 -399 71 -74 6 -83 5
-102 -14 -50 -50 -17 -93 97 -126 144 -43 322 -105 379 -132 67 -31 62 -40
-57 -97 -82 -39 -88 -41 -177 -38 -100 2 -123 -8 -123 -53 0 -58 81 -82 218
-65 119 15 298 72 412 131 l101 53 56 -12 c60 -12 243 -96 243 -111 0 -14
-160 -69 -308 -107 -105 -27 -154 -34 -226 -34 -98 0 -186 -21 -186 -45 0 -15
39 -29 123 -44 68 -12 77 -17 77 -38 0 -8 -56 -72 -124 -142 -126 -130 -156
-171 -156 -215 0 -34 40 -60 80 -52 51 10 80 37 137 124 72 112 222 259 305
300 35 17 153 60 263 97 237 79 296 87 475 61 132 -20 288 -54 295 -66 2 -4
-11 -24 -30 -44 -66 -70 -104 -122 -165 -226 -68 -116 -114 -170 -143 -170
-33 0 -80 36 -139 107 -78 94 -200 210 -233 223 -23 9 -31 7 -47 -7 -29 -26
-18 -82 31 -155 35 -53 48 -78 39 -78 -2 0 -32 9 -66 20 -86 27 -175 27 -202
0 -16 -16 -18 -25 -10 -39 17 -32 65 -67 134 -96 36 -15 66 -31 66 -35 0 -10
-231 -76 -315 -90 -132 -22 -201 -71 -177 -126 14 -29 48 -44 100 -44 21 0
143 25 272 56 301 73 296 72 303 42 11 -39 9 -45 -34 -95 -23 -26 -48 -62 -55
-80 -21 -49 -61 -80 -142 -110 -91 -32 -145 -79 -140 -119 2 -21 10 -30 33
-36 43 -13 133 -1 184 24 99 48 218 188 316 373 27 50 64 107 83 127 35 37 43
40 169 64 39 7 86 58 161 174 41 63 99 140 129 171 l54 56 108 -211 c220 -430
363 -676 621 -1072 168 -256 218 -341 298 -499 106 -212 237 -586 267 -763 50
-298 72 -713 35 -676 -5 5 -65 128 -133 274 -252 539 -321 661 -557 991 -250
351 -255 361 -270 585 -10 142 -11 150 -79 351 -38 113 -74 210 -80 216 -28
28 -65 -64 -64 -162 1 -40 11 -82 39 -151 25 -63 38 -115 40 -155 3 -55 3 -57
-7 -25 -31 101 -110 141 -139 70 -16 -39 -5 -82 37 -137 19 -25 51 -70 69
-100 19 -29 48 -69 65 -88 l31 -35 -25 0 c-71 0 -254 111 -311 189 -47 63 -92
179 -121 308 -13 57 -29 111 -36 119 -22 27 -71 13 -93 -26 -23 -38 -28 -142
-13 -249 l8 -53 -83 64 c-114 89 -123 93 -155 73 -54 -36 -9 -144 91 -223 23
-18 70 -59 106 -92 l65 -60 -48 20 c-27 11 -62 20 -78 20 -26 0 -29 -3 -29
-33 0 -56 19 -65 155 -69 101 -3 130 -8 183 -30 101 -42 227 -127 315 -213
l82 -80 -32 -3 c-18 -2 -65 6 -106 17 -115 33 -227 26 -227 -14 0 -33 216
-173 301 -196 35 -9 65 -10 114 -3 133 20 171 -18 389 -398 100 -176 180 -328
174 -334 -2 -1 -69 51 -148 117 -80 65 -179 143 -220 173 -227 163 -615 361
-953 486 -120 44 -241 92 -268 105 -94 48 -236 203 -376 410 -61 91 -96 167
-152 326 -110 317 -143 371 -187 304 -21 -32 -10 -74 42 -176 27 -51 34 -77
34 -120 -1 -64 -10 -54 -41 47 -21 69 -59 140 -87 162 -26 20 -60 15 -68 -10
-10 -30 -8 -44 23 -106 19 -37 23 -56 16 -63 -27 -27 -340 323 -436 487 -73
124 -104 243 -132 504 -16 159 -37 257 -66 317 -30 62 -70 68 -106 15 -15 -23
-18 -47 -17 -152 0 -137 11 -190 70 -348 39 -105 41 -127 16 -141 -22 -12 -67
7 -131 53 -55 40 -104 66 -125 66 -25 0 -46 -30 -46 -65 0 -48 37 -86 147
-151 111 -65 222 -167 305 -278 74 -99 100 -150 96 -184 -4 -36 -35 -39 -112
-12 -81 28 -123 27 -137 -4 -26 -56 50 -125 166 -150 158 -34 285 -83 390
-148 89 -57 202 -147 271 -215 70 -71 188 -222 180 -231 -25 -25 -530 153
-791 278 -177 85 -303 200 -416 379 -77 122 -245 404 -271 456 -28 54 -33 166
-19 393 19 283 49 407 141 579 59 110 64 153 24 180 -26 17 -27 17 -58 -18
-17 -20 -40 -51 -50 -70 -29 -51 -32 -15 -7 95 31 138 31 180 0 196 -33 18
-56 -12 -85 -109 -58 -200 -68 -228 -89 -272 -27 -51 -50 -75 -59 -60 -4 6 -5
92 -4 191 3 170 2 182 -16 196 -24 17 -53 18 -86 1 -23 -12 -27 -10 -52 15
-32 35 -55 36 -70 3 -9 -20 -6 -49 16 -147 36 -164 66 -417 66 -547 l-1 -106
-34 39 c-65 74 -168 265 -211 393 -23 68 -25 88 -20 155 6 69 59 293 131 553
30 107 31 145 7 176 -27 33 -49 19 -80 -51 -15 -33 -29 -60 -32 -60 -4 0 -14
23 -24 50 -21 57 -65 110 -93 110 -45 0 -54 -48 -27 -139 36 -122 44 -200 38
-343 -4 -76 -10 -135 -14 -131 -22 23 -110 332 -129 448 -17 105 -25 133 -42
148 -29 23 -55 22 -73 -5 -23 -32 -20 -76 14 -228 22 -97 32 -173 36 -270 l6
-135 -31 48 c-71 109 -99 184 -131 347 -12 58 -27 115 -35 126 -21 32 -64 40
-88 15 l-21 -20 28 -132 c51 -242 96 -346 270 -623 99 -159 170 -255 275 -375
80 -92 97 -121 87 -146 -5 -14 -14 -15 -49 -10 -104 18 -233 92 -324 186 -79
83 -258 374 -292 475 -30 91 -52 276 -55 475 -1 96 -6 181 -10 188 -25 41
-104 31 -125 -15 -16 -37 -14 -69 14 -175 25 -94 33 -199 16 -199 -13 0 -42
53 -85 155 -54 127 -99 163 -146 113 -11 -12 -20 -34 -20 -48 0 -14 36 -97 81
-183 89 -174 88 -193 -6 -102 -59 59 -82 66 -108 37 -36 -40 -22 -67 98 -192
44 -47 103 -114 130 -149 58 -77 276 -423 270 -429 -2 -2 -35 5 -74 17 -52 16
-84 34 -128 71 -46 40 -64 50 -88 48 -42 -4 -44 -36 -6 -91 63 -92 133 -135
262 -162 208 -43 345 -98 464 -188 151 -113 603 -580 702 -726 18 -26 33 -64
36 -88 5 -43 5 -43 -27 -43 -93 0 -233 73 -491 257 -115 82 -293 209 -395 281
-234 166 -330 242 -454 362 -153 148 -230 276 -275 462 -29 119 -28 123 19
137 48 14 62 38 64 107 1 47 -3 56 -33 88 -34 35 -67 45 -106 30 -25 -10 -45
-59 -45 -111 0 -75 -11 -81 -58 -29 -52 56 -82 148 -82 250 0 84 13 136 39
161 23 20 35 66 26 95 -8 24 -54 50 -88 50 -65 0 -84 -56 -53 -160 9 -29 16
-79 16 -109 l0 -56 -34 40 c-19 22 -73 104 -121 182 -85 140 -177 253 -205
253 -30 0 -43 -18 -43 -59 0 -49 40 -245 57 -281 6 -13 47 -46 91 -73 137 -83
215 -175 382 -445 108 -176 139 -259 117 -316 -17 -45 -138 20 -370 199 -187
146 -235 202 -340 404 -111 214 -295 366 -335 277 -16 -35 6 -74 66 -116 116
-82 170 -160 111 -160 -32 0 -92 22 -209 76 -102 48 -129 51 -162 17 -24 -24
-15 -96 16 -130 13 -14 58 -41 99 -60 243 -112 355 -178 414 -244 58 -64 45
-99 -37 -99 -114 0 -361 93 -422 159 -59 64 -110 76 -150 36 -46 -45 -29 -104
43 -152 61 -41 132 -69 265 -103 106 -27 108 -28 76 -39 -17 -6 -54 -11 -81
-11 -64 0 -88 -13 -88 -48 0 -62 48 -67 153 -18 72 34 73 35 216 35 161 0 195
-6 331 -61 170 -69 297 -160 270 -193 -30 -37 -141 -22 -465 60 -240 61 -337
75 -384 55 -34 -14 -41 -33 -28 -73 12 -35 41 -47 114 -47 128 0 246 -39 264
-87 13 -36 -11 -56 -75 -61 -50 -4 -61 -1 -99 24 -35 24 -53 28 -105 29 -58 0
-66 -3 -88 -28 -13 -15 -24 -34 -24 -42 0 -32 53 -75 133 -106 157 -62 289
-41 437 70 36 27 88 56 115 66 67 23 227 31 307 16 122 -24 302 -114 475 -238
96 -68 424 -335 419 -341 -6 -5 -238 94 -338 144 -49 24 -144 87 -212 138
-148 112 -266 193 -302 206 -42 16 -66 4 -62 -33 3 -34 29 -56 158 -137 40
-25 113 -85 163 -134 122 -120 154 -134 529 -231 180 -47 269 -84 328 -136
l35 -31 -80 6 c-44 4 -124 13 -177 21 -54 8 -158 19 -230 25 -268 21 -301 35
-410 173 -159 200 -332 323 -395 282 -39 -26 -28 -52 61 -146 46 -49 91 -105
100 -123 18 -38 21 -82 6 -91 -14 -8 -155 75 -247 146 -149 116 -244 146 -293
94 -19 -20 -23 -35 -21 -70 l2 -46 -128 3 c-143 3 -178 -6 -201 -55 -12 -24
-11 -31 2 -52 21 -32 85 -50 270 -75 271 -36 406 -71 406 -105 0 -41 -98 -78
-249 -95 -127 -14 -171 -39 -171 -94 1 -80 49 -90 283 -56 110 16 161 29 251
65 179 71 222 80 376 80 74 0 162 -4 195 -9 l60 -8 -40 -34 c-71 -60 -273
-194 -342 -227 -61 -28 -77 -32 -153 -31 -51 1 -123 10 -179 24 -124 30 -191
25 -232 -17 -58 -57 -47 -148 19 -174 15 -6 62 -11 105 -10 59 0 77 -3 77 -13
0 -8 14 -26 32 -41 27 -23 39 -26 74 -22 39 4 42 2 53 -28 15 -43 41 -65 83
-72 49 -7 102 20 122 62 20 41 20 58 0 96 -8 17 -14 32 -12 34 11 12 391 226
471 267 200 100 368 138 607 138 202 0 358 -29 380 -70 16 -29 -14 -43 -190
-90 -180 -48 -317 -93 -555 -181 l-170 -63 -156 -1 c-164 0 -189 -6 -189 -47
0 -32 43 -65 118 -89 40 -13 72 -29 72 -36 0 -27 -47 -37 -210 -44 -213 -9
-270 -29 -270 -98 0 -54 107 -70 253 -37 82 19 107 17 107 -10 0 -53 -82 -105
-196 -124 -86 -15 -111 -37 -89 -80 8 -15 29 -34 48 -43 30 -14 40 -15 107 -1
41 8 117 35 168 60 75 36 108 60 170 122 42 42 106 119 141 170 118 172 204
242 338 277 31 8 58 13 60 11 2 -1 -34 -23 -79 -47 -94 -50 -148 -93 -148
-118 0 -9 7 -27 16 -39 23 -33 72 -29 153 13 96 50 181 49 181 -2 0 -42 -61
-88 -208 -159 -75 -36 -157 -76 -181 -87 -54 -26 -71 -50 -55 -75 9 -13 22
-16 55 -14 90 8 284 81 349 132 19 15 63 75 97 132 74 124 133 185 224 233
106 55 203 77 344 78 192 0 252 -16 805 -213 80 -28 215 -72 300 -96 146 -42
253 -84 310 -122 l25 -16 -25 -7 c-45 -13 -303 -9 -440 6 -74 9 -190 18 -257
22 -68 3 -123 10 -123 14 0 5 6 9 13 9 21 0 87 60 87 80 0 35 -39 48 -165 55
-66 4 -165 16 -220 26 -157 30 -229 21 -241 -27 -9 -36 9 -50 85 -67 66 -15
272 -97 299 -119 20 -17 14 -55 -14 -77 -50 -39 -184 -84 -254 -85 -78 -1
-119 14 -224 83 -116 76 -173 94 -286 94 -106 0 -141 -10 -166 -48 -14 -21
-14 -30 -4 -55 16 -38 34 -43 134 -35 104 9 184 -11 230 -57 l30 -31 -28 -22
c-65 -52 -198 -72 -366 -55 -63 6 -160 14 -215 17 -87 5 -102 3 -115 -12 -12
-15 -12 -20 1 -43 22 -41 91 -70 199 -82 121 -15 150 -25 150 -55 0 -49 -50
-68 -210 -80 -176 -13 -219 -31 -199 -83 12 -31 66 -52 134 -52 70 0 123 -21
130 -52 2 -13 6 -50 7 -83 3 -57 5 -60 29 -63 33 -4 49 16 131 157 97 166 202
256 372 322 154 59 407 102 500 85 20 -4 40 -15 46 -26 9 -16 -2 -28 -85 -90
-133 -100 -133 -100 -260 -100 -84 0 -116 -4 -133 -16 -12 -8 -22 -19 -22 -23
0 -4 25 -25 55 -46 83 -57 97 -95 43 -114 -18 -6 -91 -18 -163 -27 -153 -18
-190 -28 -210 -57 -32 -46 -16 -86 48 -119 16 -8 41 -37 55 -64 35 -64 71 -77
212 -77 114 -1 172 13 375 88 181 67 230 83 273 89 42 6 43 6 37 -16 -6 -21
-45 -62 -164 -172 -62 -57 -121 -151 -121 -192 0 -40 38 -74 83 -74 61 0 110
42 192 165 130 195 253 297 321 267 13 -7 27 -19 31 -28 11 -29 -17 -91 -76
-171 -67 -90 -121 -182 -121 -206 0 -27 43 -49 73 -38 66 25 191 179 319 393
94 158 166 254 264 352 99 98 189 167 273 209 89 43 200 50 299 17 195 -64
450 -227 821 -523 426 -341 522 -439 612 -632 77 -164 35 -241 -77 -142 -25
22 -53 65 -85 135 -82 176 -146 250 -267 311 -57 29 -131 37 -156 18 -33 -24
-12 -60 109 -186 116 -123 152 -167 142 -177 -3 -3 -48 -1 -99 6 -164 21 -216
59 -293 211 -34 66 -80 116 -134 144 -65 33 -242 105 -260 105 -27 0 -71 -38
-71 -61 0 -33 42 -65 168 -128 66 -33 128 -71 136 -83 16 -23 16 -23 -29 -26
-26 -2 -80 4 -122 12 -107 23 -185 21 -207 -3 -15 -17 -16 -25 -6 -55 6 -20
23 -44 36 -55 32 -25 174 -72 339 -112 243 -58 245 -81 16 -151 -52 -16 -80
-31 -94 -50 -26 -35 -16 -72 26 -99 67 -43 255 -9 344 62 53 43 127 79 161 79
16 0 51 -12 78 -26 27 -14 88 -46 137 -71 48 -25 87 -50 87 -54 0 -21 -65 -33
-215 -39 -185 -7 -225 -20 -225 -69 0 -35 43 -75 98 -91 20 -6 113 -19 207
-30 103 -13 183 -27 204 -38 45 -22 85 -87 107 -172 22 -87 22 -279 0 -383
-37 -170 -129 -383 -188 -432 -40 -33 -163 -92 -393 -187 -93 -38 -197 -84
-230 -101 -78 -42 -168 -127 -270 -257 -91 -115 -139 -164 -231 -233 -75 -56
-124 -111 -124 -138 0 -11 12 -31 27 -45 22 -20 33 -23 62 -18 69 12 177 61
237 107 116 88 260 155 425 197 129 33 180 40 369 49 110 5 191 14 218 24 23
8 42 11 42 7 0 -22 -32 -91 -102 -216 -73 -133 -118 -236 -118 -274 0 -24 32
-50 63 -50 33 0 67 34 157 161 94 131 205 265 261 313 61 53 169 105 253 123
124 26 282 -2 403 -72 73 -43 187 -165 302 -323 57 -78 117 -156 134 -172 50
-49 107 -37 107 23 0 31 -40 138 -76 202 -61 111 -134 260 -134 275 0 16 3 17
43 3 25 -9 112 -18 217 -23 209 -11 320 -29 460 -76 124 -41 222 -92 335 -174
138 -100 247 -133 293 -91 51 49 19 100 -143 223 -47 36 -101 94 -165 175
-178 228 -211 252 -536 392 -405 174 -384 159 -458 306 -48 96 -63 138 -98
268 -32 119 -33 341 -1 442 44 140 87 165 323 190 74 8 157 20 183 26 101 23
142 100 75 136 -26 13 -69 18 -199 23 -137 4 -170 8 -193 24 l-28 18 138 74
c77 40 152 73 167 74 38 0 87 -22 153 -69 78 -56 152 -82 256 -88 l87 -6 31
32 c26 25 31 37 26 59 -10 39 -39 59 -120 83 -87 25 -143 48 -156 65 -18 21
34 51 118 69 246 54 383 98 421 139 29 31 37 78 16 99 -21 22 -96 22 -202 2
-85 -16 -163 -20 -163 -7 0 20 64 64 167 116 118 59 150 88 139 130 -7 28 -55
51 -90 42 -61 -15 -272 -118 -302 -147 -18 -18 -49 -62 -68 -98 -82 -156 -133
-193 -295 -211 -52 -6 -96 -9 -98 -6 -11 11 28 59 138 172 119 123 143 161
118 190 -20 24 -102 14 -172 -21 -119 -59 -194 -149 -264 -317 -41 -101 -83
-152 -134 -163 -44 -10 -73 23 -64 69 22 105 124 273 234 386 167 170 846 687
1046 796 116 63 253 107 333 106 132 -1 269 -79 442 -252 106 -106 172 -194
290 -390 120 -198 252 -350 305 -350 85 0 74 59 -43 217 -71 96 -92 133 -92
167 0 41 10 55 46 62 70 13 180 -85 303 -270 84 -127 125 -161 193 -161 62 0
93 30 84 80 -11 53 -94 161 -178 231 -83 69 -124 122 -108 138 14 14 90 -6
237 -63 252 -97 325 -116 443 -115 142 2 186 17 220 74 14 24 46 58 70 75 37
26 46 38 48 66 2 26 -3 40 -22 58 -21 20 -44 26 -148 38 -226 27 -267 40 -253
81 3 12 33 41 66 64 32 23 59 47 59 54 0 25 -63 39 -167 36 -80 -3 -109 0
-134 13 -51 27 -209 148 -209 161 0 84 410 31 639 -83 116 -57 205 -140 276
-258 94 -157 115 -185 134 -185 37 0 52 27 45 84 -6 46 -3 56 17 79 20 23 35
28 89 33 137 11 170 27 170 79 0 35 -25 43 -194 60 -78 8 -151 17 -161 21 -54
19 -72 64 -34 85 11 6 65 17 120 25 54 7 115 20 136 29 46 19 83 53 83 75 0
45 -42 49 -296 24 -132 -13 -180 -14 -240 -5 -76 11 -165 43 -183 65 -15 18
12 52 62 79 37 19 58 22 162 23 150 1 141 -1 153 32 21 62 -24 98 -135 108
-117 10 -217 -21 -345 -109 -118 -81 -183 -93 -304 -56 -127 39 -181 78 -170
122 4 19 31 35 128 79 68 31 152 62 186 69 51 10 66 17 75 36 9 20 7 27 -9 44
-31 30 -104 34 -219 11 -55 -11 -158 -23 -230 -26 -111 -6 -133 -10 -150 -27
-18 -18 -19 -22 -5 -47 9 -15 38 -38 68 -53 l53 -26 -128 -6 c-70 -3 -189 -13
-263 -22 -154 -18 -433 -23 -469 -8 -25 10 -24 10 21 37 70 41 154 72 310 115
165 46 205 60 498 169 241 90 332 116 470 133 164 20 314 -4 455 -71 104 -50
174 -118 226 -222 48 -95 97 -152 158 -182 83 -42 239 -89 299 -90 54 -1 57 0
57 24 0 22 -19 35 -191 120 -214 107 -239 123 -254 164 -26 73 73 89 165 26
63 -43 133 -52 164 -21 44 44 14 82 -120 151 -55 28 -98 54 -95 57 3 3 35 -2
71 -12 126 -34 229 -123 363 -311 137 -194 305 -306 483 -321 63 -5 67 -4 100
25 30 27 32 32 22 55 -9 19 -24 29 -55 37 -142 34 -200 63 -228 112 -12 22
-12 30 -2 40 10 10 31 8 105 -7 172 -35 252 -20 245 48 -3 27 -10 36 -50 55
-42 21 -68 25 -212 31 -130 6 -169 11 -190 25 -35 22 -27 32 39 51 79 23 119
54 123 93 5 46 -26 55 -153 46 -137 -9 -188 3 -453 102 -133 50 -299 104 -401
130 -199 51 -241 67 -241 89 0 23 54 52 129 67 98 20 412 17 524 -5 104 -21
235 -66 332 -114 55 -28 466 -257 484 -270 2 -2 -3 -11 -12 -21 -21 -23 -22
-74 -2 -111 15 -30 68 -61 104 -61 27 0 89 55 93 83 3 19 8 21 53 18 42 -2 54
2 72 21 11 13 23 32 27 43 5 18 13 20 74 17 87 -4 136 14 158 60 21 46 2 103
-45 135 -43 29 -102 30 -218 2 -51 -12 -125 -22 -175 -22 -84 -1 -89 0 -180
46 -91 46 -348 220 -348 236 0 14 228 34 311 28 102 -8 171 -26 309 -82 93
-38 136 -49 253 -65 185 -26 241 -26 267 0 31 31 27 83 -11 114 -17 14 -34 26
-37 26 -63 3 -246 32 -272 43 -73 31 -88 77 -33 98 40 15 243 55 348 68 178
23 265 49 279 86 11 29 -6 65 -38 83 -26 14 -54 17 -168 15 -76 -2 -138 0
-138 3 0 4 5 24 12 45 10 36 9 41 -12 64 -19 20 -33 25 -70 25 -57 0 -119 -31
-210 -105 -73 -59 -232 -165 -247 -165 -6 0 -16 7 -23 15 -26 31 27 123 137
236 61 63 67 93 22 118 -25 14 -31 13 -90 -17 -80 -39 -185 -135 -291 -263
-119 -146 -144 -157 -418 -179 -74 -6 -153 -15 -175 -20 -63 -13 -275 -33
-282 -26 -7 7 12 24 77 67 48 32 144 64 387 129 258 68 283 80 395 186 54 51
133 115 175 143 147 95 158 104 158 136 0 26 -4 30 -30 33 -38 3 -143 -57
-280 -163 -190 -146 -242 -175 -514 -289 -47 -20 -87 -34 -89 -32 -8 8 335
285 441 356 132 88 286 170 377 200 93 31 236 37 333 16 61 -14 89 -27 144
-68 164 -121 275 -142 444 -83 83 29 127 58 135 90 22 90 -108 127 -208 59
-75 -50 -178 -32 -178 32 0 48 92 82 249 93 102 7 116 10 133 31 20 25 17 52
-10 83 -30 34 -153 17 -487 -68 -180 -46 -323 -70 -362 -61 -16 5 -23 14 -23
31 0 49 184 159 360 216 90 29 101 30 240 27 134 -3 150 -5 210 -32 113 -49
160 -45 160 15 0 39 -24 49 -107 46 -48 -1 -75 3 -87 12 -25 21 -9 29 72 41
122 17 265 73 332 128 29 25 35 36 35 72 0 95 -100 108 -168 23 -28 -35 -196
-112 -305 -139 -167 -41 -222 -29 -189 41 26 54 120 120 287 201 85 41 175 85
199 97 58 29 86 67 86 118 0 46 -30 79 -69 79 -13 0 -68 -22 -124 -49 -88 -43
-188 -81 -214 -81 -4 0 -8 9 -8 20 0 29 63 95 132 136 69 42 97 88 77 127 -7
12 -16 25 -22 28 -32 21 -161 -67 -230 -156 -21 -28 -65 -104 -98 -170 -32
-66 -80 -147 -105 -178 -68 -87 -371 -321 -502 -389 -62 -33 -63 -33 -78 -13
-41 53 7 175 158 403 151 227 213 294 341 366 35 19 70 42 77 51 7 8 23 68 36
132 34 171 32 223 -11 223 -43 0 -145 -127 -253 -315 -22 -38 -54 -86 -70
-105 l-30 -35 -8 29 c-4 18 0 57 10 100 21 93 20 127 -4 154 -27 29 -92 30
-120 2 -29 -29 -26 -81 6 -119 64 -76 58 -244 -12 -383 -23 -46 -68 -87 -81
-74 -3 3 -1 24 6 47 16 52 6 93 -26 119 -49 39 -119 16 -153 -50 -40 -78 -20
-140 51 -162 l41 -12 -7 -45 c-4 -25 -20 -89 -37 -141 -52 -162 -98 -240 -217
-364 -138 -143 -296 -268 -646 -511 -110 -77 -253 -176 -318 -222 -190 -132
-295 -184 -406 -199 -50 -6 -51 -6 -51 20 0 47 26 91 120 202 121 142 556 576
640 638 115 85 227 131 433 175 54 12 119 32 145 45 75 38 162 139 162 187 0
47 -46 40 -120 -21 -58 -46 -110 -70 -188 -85 l-33 -7 24 39 c176 278 290 435
402 552 103 107 119 132 109 164 -17 54 -53 49 -123 -18 -32 -30 -60 -55 -64
-55 -13 0 16 71 78 191 36 70 65 140 65 156 0 67 -60 96 -103 49 -12 -13 -40
-66 -61 -117 -22 -52 -51 -112 -64 -134 l-25 -40 -9 30 c-10 36 -3 95 23 190
27 98 25 165 -4 193 -29 27 -71 28 -96 3 -16 -16 -19 -42 -24 -252 -6 -247
-23 -372 -64 -455 -33 -66 -203 -346 -243 -400 -74 -99 -245 -207 -347 -220
-95 -12 -85 20 62 196 214 255 421 617 474 832 62 248 63 280 8 286 -50 6 -71
-30 -96 -163 -12 -66 -34 -148 -48 -183 -26 -67 -101 -202 -110 -202 -16 0 9
273 33 371 14 57 28 138 31 180 6 74 5 77 -20 94 -31 20 -62 13 -81 -18 -8
-12 -19 -62 -25 -112 -20 -158 -50 -281 -103 -429 -21 -58 -22 -59 -30 -30
-15 56 -11 285 7 359 50 211 50 235 -1 235 -33 0 -69 -40 -89 -101 -9 -27 -21
-49 -26 -49 -6 0 -19 21 -31 48 -38 88 -70 105 -92 50 -17 -41 -13 -70 35
-243 106 -386 121 -510 76 -640 -54 -154 -163 -359 -220 -412 l-30 -28 7 155
c8 201 30 397 57 526 22 108 21 147 -7 158 -19 7 -64 -29 -64 -52 0 -10 -5
-12 -17 -6 -10 4 -34 8 -53 8 -27 1 -37 -4 -47 -24 -16 -31 -16 -104 -2 -206
11 -84 5 -168 -13 -162 -25 9 -70 111 -104 238 -45 166 -66 210 -98 210 -47 0
-50 -19 -26 -157 28 -164 27 -155 14 -160 -6 -2 -22 18 -37 45 -47 86 -89 103
-115 47 -14 -30 -14 -31 59 -180 97 -198 115 -284 139 -656 13 -217 8 -242
-79 -389 -37 -63 -98 -169 -136 -235 -89 -158 -144 -235 -229 -321 -120 -120
-208 -170 -502 -288 -308 -123 -554 -198 -554 -168 0 20 139 188 216 261 190
180 355 268 618 330 96 22 146 52 171 102 12 21 13 34 5 48 -17 33 -47 35
-125 6 -92 -33 -119 -31 -123 10 -3 39 49 128 144 243 77 95 142 148 277 232
120 75 154 133 106 181 -29 29 -68 20 -138 -34 -30 -23 -64 -47 -76 -54 -29
-17 -74 -16 -82 2 -3 9 13 72 36 140 82 242 94 442 30 506 -41 41 -78 12 -109
-87 -11 -37 -33 -169 -49 -293 -45 -357 -84 -444 -320 -726 -84 -101 -221
-245 -233 -245 -13 0 -8 34 8 55 8 11 19 37 25 58 21 79 -50 121 -91 55 -28
-45 -75 -145 -91 -193 -21 -64 -25 -59 -18 23 5 64 11 86 37 127 18 27 36 64
41 82 12 43 0 87 -25 91 -42 6 -66 -42 -188 -371 -59 -159 -103 -237 -224
-401 -97 -131 -192 -229 -264 -272 -31 -19 -144 -68 -250 -108 -221 -85 -249
-97 -413 -174 -305 -142 -579 -314 -802 -501 -73 -61 -133 -107 -133 -101 0
15 56 125 163 320 114 210 162 283 221 342 56 57 101 72 163 56 62 -15 121 -4
205 38 90 45 194 118 209 146 9 18 8 24 -7 35 -27 19 -127 16 -211 -8 -41 -11
-87 -19 -104 -17 l-31 3 69 68 c90 88 187 158 292 210 84 42 86 42 200 43 64
1 124 2 134 3 21 1 52 63 43 86 -6 18 -41 17 -116 -1 -20 -5 -13 6 35 53 34
32 82 75 109 97 63 51 86 90 86 148 0 37 -4 50 -19 58 -28 14 -56 1 -145 -70
-43 -34 -80 -59 -83 -56 -3 3 0 47 5 98 17 140 -12 228 -74 228 -33 0 -51 -23
-59 -77 -21 -140 -95 -319 -162 -393 -47 -53 -178 -140 -209 -140 -14 0 -39
-7 -55 -16 -17 -8 -33 -13 -36 -11 -5 6 96 158 146 221 56 70 65 152 20 176
-25 14 -67 -10 -104 -60 l-25 -34 0 33 c0 19 19 77 42 130 31 72 42 112 45
161 5 83 -15 154 -44 158 -23 3 -20 11 -119 -260 -54 -149 -55 -153 -84 -420
-13 -119 -53 -204 -186 -388 -141 -197 -213 -304 -271 -400 -79 -132 -292
-547 -373 -725 -39 -88 -81 -176 -93 -195 l-22 -35 -6 30 c-18 82 4 410 42
620 40 230 158 556 308 855 94 187 146 274 322 535 204 304 456 738 616 1064
l66 135 53 -57 c30 -32 79 -101 110 -154 63 -107 136 -189 174 -196 137 -27
142 -29 179 -66 20 -20 54 -72 76 -116 59 -121 121 -212 194 -288 80 -83 132
-116 199 -124 107 -12 136 18 103 107 -11 30 -32 67 -46 82 -37 40 -123 102
-199 144 -37 20 -73 46 -81 57 -17 24 -20 73 -5 82 9 5 85 -12 428 -95 151
-37 192 -38 229 -6 24 21 26 27 18 52 -14 38 -65 71 -133 84 -79 15 -245 57
-317 78 l-60 19 85 42 c122 61 150 93 114 132 -24 26 -125 26 -196 -1 -75 -28
-82 -27 -62 12 10 18 29 49 44 68 16 19 33 52 40 74 11 34 10 40 -7 58 -18 18
-23 18 -54 5 -20 -8 -96 -79 -185 -170 -135 -141 -154 -157 -184 -157 -45 0
-93 51 -155 166 -59 111 -97 166 -154 227 -24 26 -41 50 -38 53 29 29 402 80
512 70 77 -7 416 -117 520 -169 79 -39 218 -175 297 -290 63 -93 104 -127 151
-127 46 0 67 17 67 54 0 44 -58 121 -179 241 -125 123 -123 143 14 160 102 12
117 33 47 62 -24 10 -67 15 -122 14 -49 0 -127 8 -185 20 -95 19 -354 99 -384
118 -10 7 9 20 70 49 180 85 236 90 337 28 81 -49 152 -72 307 -101 203 -37
284 -37 321 0 21 21 23 28 13 47 -18 34 -28 38 -105 38 -44 0 -92 8 -130 20
-69 24 -156 70 -161 86 -7 21 149 81 407 158 117 35 161 85 112 129 -36 33
-187 16 -476 -54 -92 -22 -177 -39 -187 -37 -16 3 -10 14 36 73 58 75 73 112
55 144 -16 30 -51 35 -116 16 -90 -26 -159 -66 -289 -165 -66 -51 -150 -110
-187 -131 -76 -45 -501 -189 -556 -189 -40 0 -72 15 -72 34 0 39 210 263 313
334 300 206 634 276 1080 223 208 -25 413 -27 521 -6 119 22 861 215 1171 304
154 44 298 83 320 86 61 10 154 -11 270 -61 114 -48 280 -83 516 -106 125 -13
169 -5 189 33 27 49 -12 65 -208 84 -87 8 -183 22 -213 31 -74 22 -149 61
-149 78 0 46 166 127 319 156 75 14 118 0 193 -64 42 -35 118 -79 228 -134
189 -93 210 -100 233 -77 29 28 7 57 -74 96 -41 20 -87 50 -102 67 l-28 30 38
6 c21 4 76 25 123 46 48 22 136 50 203 65 130 28 150 37 166 72 15 33 14 49
-5 67 -26 27 -95 19 -206 -23 -57 -21 -137 -45 -179 -52 -67 -11 -85 -10 -140
4 -35 10 -98 22 -139 27 -69 10 -133 23 -170 36 -43 15 143 63 325 83 197 22
299 31 359 31 73 0 122 15 136 40 14 26 13 36 -6 54 -27 28 -112 20 -220 -19
-117 -43 -144 -45 -144 -11 0 42 96 172 171 232 38 30 74 64 80 75 15 28 4 66
-22 74 -17 6 -46 -19 -162 -138 -145 -147 -187 -177 -250 -177 -87 0 -87 22 1
97 37 32 130 121 207 198 77 77 156 155 177 173 58 53 59 122 1 122 -27 0 -46
-17 -187 -174 -70 -78 -120 -120 -296 -248 -25 -18 -130 -116 -235 -218 -107
-104 -221 -206 -260 -232 -91 -60 -222 -125 -268 -133 -82 -16 -114 20 -81 90
22 48 82 92 214 159 108 56 165 104 174 149 3 12 8 54 11 92 10 122 47 167
149 186 70 13 135 5 229 -27 99 -34 102 -33 123 29 22 69 49 122 90 177 39 55
50 91 34 120 -8 15 -19 20 -38 18 -21 -2 -33 -14 -54 -58 -30 -59 -111 -144
-131 -137 -6 2 -19 24 -27 48 -21 59 -53 66 -74 16 -19 -46 -51 -67 -103 -67
-100 0 -98 75 8 231 101 149 239 266 417 352 148 71 207 124 266 239 39 74 39
76 23 102 -32 48 -57 36 -127 -66 -101 -146 -146 -188 -199 -188 -56 0 -49 62
43 378 20 68 36 134 36 147 0 27 -22 48 -47 43 -26 -4 -46 -52 -98 -232 -25
-87 -55 -177 -67 -200 -11 -22 -91 -151 -176 -286 -86 -135 -200 -329 -253
-432 -53 -103 -122 -225 -152 -271 -157 -241 -425 -463 -771 -638 -83 -42
-177 -90 -208 -107 -92 -49 -127 -20 -73 60 14 20 54 86 88 146 128 219 246
348 482 522 154 115 306 259 378 361 26 37 75 116 109 175 76 136 165 274 248
384 76 103 132 218 128 263 -3 27 -7 32 -33 35 -44 4 -73 -31 -148 -178 -74
-146 -161 -281 -165 -257 -3 15 3 52 29 170 11 54 11 60 -8 78 -24 25 -60 14
-93 -28 -20 -25 -21 -35 -15 -101 8 -83 -7 -191 -37 -267 -85 -216 -375 -525
-494 -525 -25 0 -26 2 -22 43 3 24 25 90 50 147 l45 105 44 5 c123 15 208 114
293 342 57 154 44 184 -50 112 l-47 -36 7 29 c14 55 64 151 102 193 59 65 197
168 371 276 164 102 232 159 234 197 2 35 -2 51 -14 59 -24 15 -46 7 -93 -33
-123 -102 -244 -123 -244 -42 0 28 46 123 121 250 76 130 106 269 64 299 -50
37 -90 -6 -171 -185 -58 -127 -111 -217 -122 -206 -3 3 -5 57 -4 121 1 65 -2
124 -8 135 -14 26 -66 26 -80 0 -14 -28 -28 -138 -39 -310 -7 -100 -15 -160
-25 -180 -33 -63 -99 -81 -134 -36 -31 40 -36 95 -17 209 19 118 12 153 -36
170 -44 15 -78 -2 -160 -80 -43 -41 -83 -72 -89 -69 -15 9 -12 97 5 145 23 65
19 97 -14 131 -42 42 -96 41 -138 -3 -52 -54 -56 -77 -28 -157 14 -39 25 -81
25 -94 0 -32 -24 -62 -61 -77 -29 -13 -33 -12 -50 8 -27 34 -56 28 -74 -14
-20 -48 -19 -87 3 -107 23 -21 134 -50 192 -51 68 0 140 44 249 153 75 74 92
88 85 65 -5 -16 -9 -148 -10 -294 0 -306 10 -258 -127 -566 -124 -278 -260
-552 -304 -609 l-38 -50 -7 45 c-19 109 -9 228 37 454 24 122 60 280 80 351
42 151 64 313 47 351 -8 16 -20 24 -36 24 -42 0 -51 -24 -52 -139 -1 -113 -10
-148 -119 -431 -43 -114 -58 -133 -75 -99 -23 42 -70 404 -71 544 0 72 -4 168
-8 214 -5 70 -10 86 -30 102 -30 25 -63 24 -87 -2 -17 -19 -19 -39 -19 -218
-1 -202 -9 -253 -42 -265 -36 -14 -102 88 -148 232 -28 88 -49 111 -85 92 -43
-23 -35 -116 20 -233 38 -80 77 -126 158 -187 83 -64 104 -92 151 -214 78
-200 86 -245 86 -486 0 -240 -10 -320 -75 -600 -57 -249 -102 -343 -176 -369
-21 -7 -91 -42 -154 -77 -63 -35 -134 -66 -157 -70 -37 -6 -45 -3 -67 21 -32
35 -41 83 -26 132 7 21 50 95 97 165 95 143 118 194 169 375 19 70 52 166 71
213 20 47 47 112 60 145 59 149 83 319 49 353 -25 25 -50 4 -54 -44 -5 -82
-24 -171 -53 -246 -17 -43 -34 -78 -39 -78 -4 0 -14 32 -20 72 -12 68 -10 237
6 472 5 79 4 91 -12 103 -27 20 -40 16 -53 -14 -9 -24 -91 -405 -91 -425 0
-21 -22 -4 -39 30 -11 21 -27 44 -35 51 -13 11 -17 9 -27 -13 -10 -21 -8 -41
11 -114 45 -174 51 -221 48 -377 -3 -143 -4 -152 -31 -197 -18 -31 -37 -50
-54 -54 -39 -10 -53 16 -53 98 0 61 -2 69 -25 84 -23 15 -27 15 -50 0 -31 -20
-33 -32 -38 -177 -3 -108 -6 -122 -37 -185 -23 -48 -55 -91 -104 -139 -67 -67
-81 -75 -271 -162 -223 -103 -275 -123 -315 -123 -64 0 -114 83 -91 152 6 20
37 64 67 99 81 93 89 114 103 273 7 77 17 149 21 162 21 53 147 55 276 3 40
-16 91 -29 113 -29 90 0 145 49 119 105 -16 35 -51 41 -110 20 -31 -11 -64
-16 -89 -12 -50 7 -119 51 -119 76 0 26 58 75 133 112 132 67 205 116 280 191
43 44 77 87 77 98 0 29 -56 88 -92 95 -23 5 -37 2 -59 -14 -16 -12 -29 -17
-29 -11 0 20 -49 60 -73 60 -28 0 -54 -27 -97 -100 -33 -56 -150 -208 -161
-209 -11 -1 -19 71 -19 175 0 108 -6 124 -51 124 -49 0 -53 -16 -45 -185 9
-221 10 -219 -214 -391 -74 -57 -157 -122 -185 -144 -27 -22 -82 -56 -122 -76
-61 -31 -78 -36 -115 -31 -63 8 -92 45 -85 108 7 59 38 123 168 342 224 377
297 460 535 603 59 35 143 76 188 91 78 26 89 27 316 28 146 1 245 5 260 12
66 28 62 73 -8 100 -38 15 -71 17 -170 15 -72 -1 -131 2 -142 8 -44 24 -6 101
69 139 20 10 86 33 146 51 128 36 183 64 204 102 14 24 14 28 -4 48 -25 28
-45 24 -249 -50 -89 -32 -209 -72 -269 -89 -133 -38 -163 -57 -297 -185 -149
-142 -270 -200 -380 -181 -51 9 -100 48 -100 81 0 37 25 68 103 128 137 103
333 193 518 236 284 67 371 100 557 211 166 100 617 408 634 433 15 22 8 47
-16 56 -16 6 -60 4 -128 -6 -207 -30 -300 -21 -335 32 -13 20 -11 26 29 75 86
105 190 130 349 84 52 -15 116 -28 143 -29 l50 -1 33 59 c41 72 75 113 123
149 21 15 40 36 43 48 7 25 -28 63 -50 55 -8 -3 -20 -6 -26 -6 -7 0 -47 -37
-89 -82 l-77 -82 -57 1 c-61 2 -106 25 -112 58 -6 26 85 105 169 147 41 20
115 48 164 63 211 63 232 77 181 122 -37 32 -73 27 -200 -26 -103 -44 -190
-64 -256 -59 -40 3 -45 6 -48 29 -4 37 33 78 137 149 140 97 314 243 335 281
22 41 16 83 -14 99 -32 17 -58 3 -140 -74 -80 -76 -138 -121 -146 -113 -3 2 7
38 20 79 33 97 49 238 36 308 -16 85 -58 130 -120 130 -70 0 -120 -49 -120
-117 0 -35 6 -48 33 -76 19 -18 48 -39 65 -46 18 -8 32 -19 32 -25 0 -14 -68
-174 -106 -250 -27 -53 -81 -126 -93 -126 -5 0 -10 52 -13 115 -6 126 -20 165
-62 165 -59 0 -76 -58 -101 -348 -25 -291 -37 -318 -215 -510 -153 -166 -182
-190 -280 -241 -106 -55 -176 -76 -205 -63 -77 35 -23 125 250 417 198 211
234 255 285 341 41 70 50 120 28 142 -22 22 -47 12 -77 -32 -35 -51 -108 -116
-129 -116 -12 0 -14 14 -9 83 10 146 74 304 148 372 46 41 190 115 283 145 67
22 118 56 137 91 7 14 6 38 -2 79 -10 52 -9 66 6 106 10 25 30 60 45 78 15 17
32 41 39 53 43 83 -51 165 -113 99 -12 -14 -39 -68 -60 -121 -45 -113 -84
-168 -149 -211 -55 -36 -150 -69 -173 -60 -13 5 -15 15 -10 49 11 71 61 202
107 283 65 113 117 160 256 233 123 63 143 82 143 136 0 33 -34 65 -68 65 -17
0 -47 -13 -72 -32 -129 -98 -135 -100 -125 -30 4 26 20 78 37 115 50 116 47
177 -8 177 -36 0 -68 -40 -105 -133 -57 -143 -100 -192 -115 -132 -9 37 1 91
41 215 39 120 40 129 22 154 -20 27 -52 12 -70 -32 -24 -62 -55 -210 -72 -347
-19 -151 -101 -575 -151 -785 -65 -272 -123 -437 -264 -750 -49 -107 -105
-240 -125 -295 -51 -135 -117 -290 -171 -397 -24 -48 -80 -170 -124 -269 -107
-240 -123 -271 -168 -318 -42 -44 -84 -60 -107 -41 -21 18 -19 41 14 144 34
105 93 367 115 506 9 52 27 194 41 315 l25 220 74 155 c128 268 265 584 278
641 11 49 23 65 133 179 66 69 135 148 153 177 72 113 164 390 146 441 -12 34
-61 43 -86 15 -8 -10 -29 -74 -46 -142 -48 -193 -123 -328 -228 -413 -61 -50
-99 -52 -112 -5 -12 42 0 120 33 225 25 78 25 79 125 166 56 48 106 98 112
111 15 32 -7 91 -44 118 -26 19 -28 20 -72 3 -25 -9 -63 -34 -84 -55 -33 -32
-43 -52 -62 -125 -13 -47 -27 -86 -32 -86 -5 0 -29 -14 -54 -30 -50 -35 -55
-58 -25 -120 16 -34 18 -56 15 -152 -6 -129 -24 -192 -89 -314 -65 -121 -160
-264 -176 -264 -4 0 -14 18 -23 40 -29 72 -16 521 19 655 26 100 72 180 137
241 l60 54 28 -30 c34 -37 59 -38 91 -4 20 22 24 35 24 93 0 67 0 67 55 130
30 35 96 94 147 133 104 78 133 112 133 157 0 32 -29 71 -52 71 -27 0 -116
-61 -179 -122 -199 -191 -282 -268 -339 -312 l-63 -50 7 54 c8 59 34 116 78
172 27 34 230 225 324 304 52 43 48 98 -10 117 -10 3 -4 22 80 257 47 131 44
160 -15 160 -63 0 -80 -31 -136 -251 -34 -136 -128 -249 -206 -249 -25 0 -29
4 -29 28 0 15 14 56 30 91 40 84 81 246 87 347 3 44 2 125 -2 178 -6 78 -11
102 -27 118 -35 35 -107 6 -129 -50 -16 -42 -38 -189 -49 -324 -6 -73 -19
-182 -30 -243 -11 -60 -26 -148 -35 -195 -14 -81 -52 -157 -80 -163 -5 -1 -21
21 -35 48 -23 46 -25 60 -24 185 1 133 1 136 38 220 45 100 55 191 37 310 -13
81 -31 110 -68 110 -36 0 -45 -36 -26 -106 20 -77 13 -189 -13 -235 -15 -26
-28 -35 -52 -37 -62 -6 -102 74 -102 203 0 29 -3 60 -6 69 -9 23 -50 20 -75
-6 -19 -21 -20 -31 -16 -98 10 -134 49 -232 104 -261 27 -14 29 -31 8 -49 -8
-7 -20 -31 -26 -54 -14 -52 -3 -133 57 -431 56 -277 72 -427 57 -531 -17 -121
-68 -170 -99 -97 -63 143 -114 223 -143 223 -21 0 -41 -33 -41 -69 0 -45 33
-98 119 -194 70 -78 107 -146 144 -262 97 -310 102 -978 12 -1555 -22 -138
-101 -449 -132 -521 l-27 -62 -27 32 c-14 17 -49 76 -77 129 -71 136 -84 205
-84 457 0 179 3 219 31 380 72 414 63 735 -19 735 -29 0 -36 -28 -43 -166 -6
-120 -22 -214 -37 -214 -15 0 -40 139 -42 238 l-3 98 42 65 c46 72 86 176 103
269 24 132 -44 268 -103 203 -8 -10 -29 -67 -47 -128 -40 -140 -67 -209 -91
-231 -18 -16 -19 -16 -19 8 0 14 -17 58 -37 97 l-37 72 17 132 c25 195 22 248
-18 291 -28 30 -90 49 -116 36 -24 -13 -75 -122 -90 -191 -9 -46 -9 -67 5
-127 20 -88 20 -105 1 -170 -47 -156 -168 -163 -212 -13 -29 100 0 378 49 476
48 95 78 118 220 169 70 26 185 105 249 172 49 52 136 160 207 256 38 52 23
138 -23 138 -8 0 -36 -33 -63 -72 -154 -228 -337 -404 -412 -396 -69 7 -65 51
15 165 29 43 77 116 106 162 67 107 199 387 199 421 0 35 -27 70 -53 70 -29
-1 -48 -29 -97 -142 -55 -127 -181 -357 -245 -448 -96 -136 -137 -164 -169
-118 -32 45 -21 96 53 246 38 77 93 193 122 258 29 66 65 139 81 163 36 57 37
103 3 129 -35 28 -59 18 -100 -40 -48 -66 -59 -56 -51 47 6 90 0 105 -45 105
-70 0 -88 -99 -44 -234 43 -132 38 -164 -55 -356 -111 -230 -113 -236 -115
-530 -1 -238 -2 -248 -33 -375 -46 -187 -60 -230 -82 -257 l-20 -23 -20 25
c-52 66 -64 213 -36 460 8 69 17 168 20 220 4 52 13 205 22 340 21 335 43 467
94 570 10 19 77 114 149 210 147 196 201 290 204 350 3 88 -72 104 -136 29
-19 -22 -68 -108 -110 -192 -78 -157 -120 -215 -137 -187 -27 43 2 162 103
415 l92 230 0 90 c0 71 -4 97 -18 118 -24 37 -63 51 -98 37 -45 -19 -60 -66
-69 -218 -8 -134 -35 -260 -119 -555 -32 -115 -56 -116 -72 -1 -10 75 -5 158
17 245 17 69 18 138 1 160 -41 53 -110 11 -123 -76 -13 -89 3 -321 32 -465 26
-131 27 -139 15 -255 -13 -122 -53 -375 -69 -430 -5 -16 -13 -30 -19 -30 -6 0
-34 28 -63 63 -81 97 -135 113 -160 46 -17 -45 -11 -73 39 -172 37 -72 52
-116 60 -172 6 -41 17 -121 26 -178 20 -140 20 -204 -3 -232 -41 -50 -102 5
-102 92 0 94 -51 125 -106 66 -17 -18 -48 -57 -68 -87 -29 -43 -36 -62 -36
-103 0 -60 21 -103 59 -123 38 -19 71 -22 157 -12 114 14 117 10 149 -193 20
-122 41 -172 93 -222 30 -30 211 -132 447 -252 56 -29 144 -122 222 -234 207
-300 263 -388 263 -414 0 -15 -4 -29 -9 -32 -12 -8 -294 248 -326 295 -51 78
-100 86 -130 23 -14 -29 -15 -43 -5 -86 20 -94 63 -142 217 -246 87 -58 176
-141 200 -185 6 -12 48 -116 92 -232 44 -115 104 -273 134 -350 87 -225 111
-315 111 -420 0 -49 -5 -106 -12 -125 -7 -20 -16 -84 -20 -142 -8 -103 -27
-158 -52 -158 -12 0 -89 104 -142 193 -39 66 -41 73 -44 161 -1 50 -7 111 -14
135 -24 91 -103 129 -155 76 -45 -45 -31 -104 50 -211 6 -9 2 -26 -13 -52 -12
-22 -22 -50 -22 -62 0 -52 48 -88 94 -70 22 8 25 6 31 -28 4 -20 18 -63 31
-94 28 -67 32 -143 8 -152 -28 -11 -34 -7 -94 50 -40 38 -65 54 -75 50 -12 -4
-14 -13 -10 -28 16 -53 102 -203 148 -256 64 -75 90 -127 89 -179 0 -43 -69
-212 -184 -453 -33 -69 -87 -186 -120 -260 -33 -74 -61 -136 -63 -138 -12 -13
-61 107 -87 210 -27 108 -30 134 -25 214 8 112 30 225 65 324 23 63 27 92 27
180 0 145 -33 201 -107 186 l-30 -6 7 53 c3 28 13 73 21 99 28 87 -26 120 -91
55 -71 -71 -71 -184 0 -410 30 -95 31 -145 4 -224 -25 -75 -45 -96 -64 -69 -8
10 -32 95 -55 189 -23 94 -53 205 -67 246 -48 145 -65 262 -57 396 13 206 2
277 -43 283 -37 5 -46 -56 -38 -268 7 -218 18 -320 46 -438 36 -151 17 -272
-42 -272 -23 0 -82 51 -109 95 -34 54 -60 143 -71 244 -14 115 -23 141 -47
141 -54 0 -56 -83 -7 -233 39 -120 42 -143 19 -175 -14 -20 -24 -22 -100 -22
-77 0 -87 -2 -109 -24 -26 -26 -25 -50 3 -61 9 -4 60 -11 114 -15 118 -9 160
-30 208 -103 19 -29 73 -92 118 -140 160 -170 310 -437 246 -437 -29 0 -52 20
-99 86 -26 37 -62 82 -79 102 -93 106 -194 125 -155 29 7 -17 95 -115 194
-217 112 -115 189 -203 205 -233 l25 -49 -35 -26 c-60 -46 -190 -174 -250
-247 -138 -170 -345 -511 -395 -652 -130 -367 -192 -478 -479 -851 -185 -242
-232 -315 -362 -563 -58 -112 -108 -206 -111 -209 -2 -2 -3 119 -1 270 l3 275
51 100 c84 164 232 425 388 684 81 135 184 308 228 385 120 209 196 330 245
387 77 91 104 169 67 200 -26 21 -64 -8 -106 -81 -20 -35 -59 -91 -87 -125
-27 -34 -64 -88 -82 -121 -41 -74 -58 -94 -79 -94 -25 0 -31 22 -37 120 -11
180 48 313 181 415 32 24 39 26 67 16 44 -15 173 -14 212 3 39 16 96 72 103
102 7 26 -20 82 -43 91 -9 4 -39 -5 -67 -20 -27 -15 -52 -24 -55 -21 -3 3 13
22 35 42 22 20 69 62 102 92 45 40 62 62 62 80 -1 68 -51 71 -120 6 -27 -26
-59 -46 -71 -46 -21 0 -21 3 -15 58 3 31 9 107 13 167 5 91 3 116 -11 142 -31
61 -89 48 -129 -28 -16 -30 -18 -51 -13 -174 7 -155 -4 -245 -35 -309 -28 -55
-78 -106 -104 -106 -69 0 -83 113 -39 302 24 102 29 145 29 255 0 125 -1 133
-24 157 -14 14 -28 26 -33 26 -23 0 -40 -56 -49 -162 -14 -172 -35 -242 -65
-217 -7 6 -29 53 -49 104 -52 133 -96 173 -138 127 -37 -41 -44 -190 -12 -253
8 -14 46 -56 85 -93 l72 -67 -12 -267 c-6 -147 -15 -310 -21 -362 -10 -99 -33
-195 -49 -205 -5 -3 -23 15 -40 39 -36 53 -66 76 -97 76 -51 0 -55 -67 -13
-205 17 -54 30 -119 30 -146 0 -82 -120 -426 -219 -629 l-56 -115 -3 960 c-3
1019 0 1114 43 1331 43 215 110 379 223 549 90 137 98 145 478 527 249 250
370 364 401 379 41 20 53 21 191 14 136 -6 154 -5 242 18 52 14 133 42 180 62
47 21 116 51 155 67 38 16 80 39 92 50 49 46 13 130 -61 144 -107 19 -216 -17
-321 -107 -83 -72 -175 -114 -243 -113 -29 1 -55 4 -59 7 -8 8 66 226 92 272
32 55 85 104 187 172 111 74 301 271 319 331 23 77 -28 152 -103 152 -56 0
-78 -33 -158 -234 -30 -74 -55 -121 -80 -147 -42 -45 -52 -47 -81 -18 -19 19
-21 29 -16 113 3 74 11 109 41 186 61 156 48 260 -31 268 -55 6 -63 -14 -63
-152 0 -146 -15 -318 -36 -401 -32 -129 -155 -321 -282 -440 -35 -33 -111
-114 -169 -180 -58 -66 -119 -132 -135 -147 -82 -80 -158 23 -128 175 28 144
105 277 279 482 175 205 297 436 357 674 20 79 25 121 25 236 0 147 -10 199
-42 216 -55 29 -86 -54 -99 -268 -8 -121 -15 -160 -41 -236 -39 -114 -69 -174
-125 -254 -50 -69 -78 -93 -111 -93 -22 0 -23 4 -23 68 0 45 -12 116 -35 208
-19 76 -35 146 -35 156 0 9 11 52 24 95 34 110 42 186 21 207 -23 22 -61 20
-85 -6 -19 -21 -28 -72 -12 -81 4 -3 6 -72 6 -154 -1 -81 -2 -275 -3 -431 0
-156 -5 -301 -11 -321 -13 -49 -44 -79 -64 -62 -21 18 -43 126 -56 271 -11
128 -23 163 -59 175 -28 9 -60 -11 -67 -41 -7 -29 -3 -61 25 -194 12 -52 21
-120 21 -149 0 -30 5 -105 11 -167 13 -137 5 -172 -82 -345 -32 -65 -91 -189
-130 -276 -127 -282 -215 -456 -277 -548 -71 -104 -109 -152 -117 -144 -9 9
15 780 26 820 5 20 54 128 108 240 55 112 114 249 131 304 42 132 99 303 149
445 35 99 44 141 61 295 22 204 36 255 87 314 41 48 69 64 161 92 37 12 83 30
103 41 36 20 69 63 69 90 0 28 -35 48 -83 48 -26 0 -47 2 -47 5 0 3 13 31 29
63 59 119 145 339 149 384 4 43 2 50 -28 78 -18 16 -38 30 -45 30 -29 0 -57
-41 -101 -150 -66 -167 -99 -230 -150 -288 -66 -75 -104 -65 -104 26 0 46 50
296 80 397 33 114 24 165 -30 165 -38 0 -49 -21 -88 -175 -50 -196 -70 -312
-82 -463 -11 -157 -24 -203 -88 -310 -52 -88 -68 -141 -87 -297 -11 -87 -28
-165 -52 -238 -44 -133 -80 -179 -168 -212 -33 -12 -67 -25 -76 -29 -14 -6
-17 12 -22 151 -4 87 -7 304 -7 482 l0 324 64 126 c34 69 96 185 136 256 40
72 102 186 138 255 35 69 74 136 86 148 27 31 80 57 131 67 81 14 98 28 170
136 38 57 102 147 142 200 97 128 107 189 32 189 -51 0 -104 -59 -133 -148
-28 -83 -97 -196 -142 -231 -15 -12 -39 -24 -53 -27 -14 -3 -39 -10 -54 -16
-15 -6 -30 -8 -33 -5 -9 9 75 197 186 412 60 116 130 264 155 330 25 66 60
155 77 198 53 134 47 199 -16 183 -32 -8 -55 -50 -141 -256 -103 -248 -108
-259 -148 -320 -44 -70 -75 -98 -114 -106 -29 -6 -32 -3 -43 32 -10 28 -11 81
-6 199 10 241 26 288 127 369 80 65 129 142 129 204 0 39 -3 44 -30 53 -22 8
-30 17 -30 36 0 71 -83 -41 -181 -244 -65 -136 -85 -219 -69 -294 10 -47 10
-70 -4 -136 -9 -44 -16 -116 -16 -159 0 -104 -17 -305 -31 -374 -15 -74 -70
-215 -107 -276 -17 -27 -45 -77 -64 -111 -18 -33 -58 -93 -88 -131 -53 -69
-55 -70 -61 -44 -4 15 -7 347 -8 738 l-1 710 198 195 c198 195 236 226 392
315 104 61 203 156 260 252 43 73 100 219 100 258 0 48 -71 74 -110 39 -10 -9
-33 -61 -51 -114 -49 -150 -90 -231 -138 -274 -56 -50 -65 -47 -89 33 -35 110
-20 233 43 366 37 76 35 101 -9 122 -23 12 -31 11 -51 -2 -66 -43 -99 -153
-135 -451 -15 -125 -56 -206 -159 -316 -81 -87 -210 -199 -228 -199 -19 0 -23
41 -23 223 l0 178 61 72 c102 121 148 215 218 447 57 189 53 280 -14 280 -35
0 -52 -32 -74 -140 -56 -272 -95 -383 -154 -438 l-24 -23 -6 68 c-4 37 -7 245
-7 461 0 379 -1 393 -20 412 -19 19 -53 23 -108 13z m-2192 -2995 c0 -24 -16
-56 -23 -48 -6 6 -10 38 -8 58 2 22 31 13 31 -10z m4488 -5 c-4 -34 -28 -43
-28 -10 0 25 7 37 22 37 5 0 8 -12 6 -27z m11 -439 c52 -104 91 -419 74 -584
l-8 -85 -66 110 c-100 167 -183 344 -182 385 1 58 42 126 112 183 39 33 51 31
70 -9z m-4459 -24 c50 -42 100 -125 100 -167 0 -30 -98 -234 -171 -355 -33
-54 -59 -102 -59 -108 0 -5 -4 -10 -9 -10 -26 0 -17 374 13 502 20 86 55 178
68 178 6 0 32 -18 58 -40z m-1697 -1180 c37 -12 90 -39 125 -64 162 -120 317
-319 282 -362 -40 -48 -164 22 -375 211 -83 75 -113 95 -140 95 -9 0 -50 -17
-92 -37 -70 -34 -77 -36 -101 -22 -39 22 -66 63 -59 91 11 44 156 106 248 107
26 1 76 -8 112 -19z m7951 5 c79 -21 167 -65 176 -90 10 -26 3 -43 -28 -77
-32 -35 -65 -36 -128 -2 -65 35 -101 45 -128 34 -12 -4 -76 -56 -142 -115
-170 -151 -289 -218 -329 -185 -8 7 -15 23 -15 35 0 59 200 286 311 352 56 34
142 61 194 62 17 1 57 -6 89 -14z m-9747 -952 c114 -110 255 -327 240 -367 -8
-20 -58 -21 -96 -1 -42 21 -103 95 -144 173 -33 63 -97 235 -97 261 0 19 31
-2 97 -66z m11447 40 c-10 -43 -69 -194 -98 -251 -49 -97 -126 -162 -210 -178
-37 -6 -38 -6 -31 17 33 104 213 368 285 416 46 32 62 30 54 -4z m-8459 -5535
c23 -22 -99 -150 -213 -223 -96 -61 -197 -107 -367 -164 -237 -81 -357 -91
-462 -38 -28 15 -54 31 -58 36 -9 16 214 234 281 273 99 58 238 95 440 117 89
10 369 10 379 -1z m5778 -3 c323 -38 399 -72 595 -267 l113 -113 -28 -23 c-92
-74 -250 -68 -508 19 -225 77 -371 157 -489 268 -69 66 -95 109 -74 122 21 14
252 10 391 -6z m-7183 -655 c11 -7 8 -9 -15 -9 -16 1 -41 5 -55 9 -22 7 -20 8
15 9 22 0 47 -4 55 -9z m8270 0 c-8 -5 -33 -9 -55 -9 -31 0 -36 2 -20 9 29 13
94 13 75 0z"/>
<path d="M4510 14555 c-9 -11 -11 -35 -7 -78 3 -34 9 -95 13 -134 8 -85 -4
-113 -38 -89 -30 21 -62 73 -92 151 -15 39 -32 83 -38 98 -15 38 -53 53 -84
32 -21 -13 -24 -24 -24 -74 0 -119 48 -215 175 -346 104 -109 145 -164 152
-210 6 -35 5 -35 -31 -35 -54 0 -93 20 -171 90 -38 35 -89 71 -113 82 -40 18
-45 18 -68 4 -31 -21 -33 -86 -4 -133 23 -38 57 -60 213 -138 64 -32 117 -62
117 -66 0 -16 -43 -23 -177 -29 -123 -4 -145 -8 -170 -26 -39 -29 -43 -77 -9
-99 28 -19 57 -17 171 8 39 9 120 19 181 23 105 6 114 5 166 -18 114 -52 171
-137 88 -130 -204 15 -249 22 -290 41 -66 30 -115 28 -151 -8 -16 -16 -29 -36
-29 -44 0 -25 59 -96 86 -103 27 -7 160 4 417 33 119 14 162 15 224 6 84 -12
99 -10 106 16 6 25 -7 47 -77 121 -97 104 -258 305 -294 367 -48 86 -91 229
-118 398 -13 83 -29 177 -36 209 -16 82 -56 119 -88 81z"/>
<path d="M15896 14546 c-23 -17 -34 -55 -66 -235 -33 -187 -73 -320 -125 -420
-38 -72 -233 -322 -321 -411 -38 -40 -54 -63 -54 -82 0 -42 27 -50 118 -39 59
8 110 6 203 -5 68 -8 194 -17 279 -21 l155 -6 33 37 c83 94 -12 173 -138 114
-35 -16 -74 -22 -170 -27 -69 -4 -131 -10 -137 -14 -14 -9 -37 19 -30 37 10
25 98 83 153 102 47 16 65 16 193 5 78 -6 173 -19 212 -28 63 -15 73 -16 97
-2 51 28 36 95 -28 122 -14 6 -91 11 -172 11 -80 1 -150 4 -154 8 -15 15 25
43 136 95 170 80 210 118 210 198 0 34 -27 75 -50 75 -28 0 -82 -33 -145 -90
-79 -71 -133 -99 -187 -100 -44 0 -46 7 -19 66 20 44 79 115 191 229 87 89
131 176 138 275 4 59 2 70 -17 89 -43 43 -79 20 -110 -70 -41 -119 -100 -219
-130 -219 -20 0 -24 54 -11 165 7 62 10 119 7 128 -7 19 -43 27 -61 13z"/>
<path d="M6427 14496 c-78 -72 -14 -211 89 -192 81 16 114 128 55 187 -39 39
-105 41 -144 5z"/>
<path d="M13890 14493 c-35 -32 -47 -83 -31 -125 12 -33 65 -68 101 -68 40 0
87 35 100 74 35 107 -88 193 -170 119z"/>
<path d="M5080 14090 c-17 -17 -18 -24 -10 -41 18 -32 54 -21 58 17 4 40 -20
52 -48 24z"/>
<path d="M15351 14088 c-5 -13 -5 -30 1 -40 11 -22 13 -22 32 -2 22 21 20 41
-4 54 -17 9 -22 7 -29 -12z"/>
<path d="M8317 13842 c-24 -26 -21 -59 7 -77 47 -31 93 22 62 70 -19 30 -47
32 -69 7z"/>
<path d="M12081 13836 c-31 -37 9 -103 47 -80 36 23 23 94 -18 94 -10 0 -23
-6 -29 -14z"/>
<path d="M12193 12092 c-27 -4 -53 -38 -53 -68 0 -37 37 -74 76 -74 65 0 95
61 54 112 -21 28 -42 36 -77 30z"/>
<path d="M8196 12074 c-39 -39 -24 -104 29 -124 72 -27 129 67 73 120 -26 24
-80 27 -102 4z"/>
<path d="M8491 11966 c-19 -20 -22 -32 -17 -60 8 -41 33 -59 78 -54 39 4 73
46 63 77 -19 59 -85 79 -124 37z"/>
<path d="M11856 11969 c-50 -40 -22 -129 41 -129 30 0 73 42 73 70 0 24 -51
80 -73 80 -8 0 -26 -9 -41 -21z"/>
<path d="M16246 11965 c-20 -20 -21 -59 -2 -74 20 -17 67 -10 80 12 8 13 7 24
-4 45 -18 32 -51 40 -74 17z"/>
<path d="M4130 11950 c-14 -25 -5 -57 19 -70 40 -21 81 46 49 78 -19 19 -56
14 -68 -8z"/>
<path d="M8817 10892 c-20 -22 -22 -63 -5 -80 7 -7 26 -12 43 -12 17 0 36 5
43 12 20 20 14 65 -10 82 -29 21 -51 20 -71 -2z"/>
<path d="M11570 10890 c-11 -11 -20 -26 -20 -33 0 -24 31 -57 55 -57 24 0 55
33 55 57 0 18 -37 53 -55 53 -8 0 -24 -9 -35 -20z"/>
<path d="M17084 10245 c-78 -40 -84 -159 -9 -193 83 -38 165 9 165 94 0 83
-83 136 -156 99z"/>
<path d="M3273 10234 c-18 -9 -39 -31 -49 -52 -15 -32 -15 -41 -3 -76 15 -42
66 -86 101 -86 41 0 85 28 103 66 16 34 17 42 4 78 -15 43 -67 86 -103 86 -12
0 -35 -8 -53 -16z"/>
<path d="M5670 9910 c-11 -11 -20 -28 -20 -38 0 -57 72 -70 100 -19 14 27 14
29 -13 53 -34 29 -41 30 -67 4z"/>
<path d="M14703 9904 c-15 -23 -15 -29 -2 -52 21 -37 52 -45 83 -21 31 24 33
52 6 79 -28 28 -66 26 -87 -6z"/>
<path d="M17420 8815 c-32 -34 -33 -91 -1 -116 53 -43 131 -7 131 60 0 74 -81
108 -130 56z"/>
<path d="M7325 8130 c-8 -16 -15 -47 -15 -69 0 -31 6 -44 27 -61 49 -38 123
-4 123 57 0 84 -101 139 -135 73z"/>
<path d="M13030 8131 c-55 -54 -48 -124 14 -146 40 -14 97 19 110 62 11 41 -6
86 -40 102 -38 17 -53 14 -84 -18z"/>
<path d="M4034 6990 c-36 -14 -64 -59 -64 -102 0 -52 51 -108 99 -108 41 0 84
22 105 54 56 87 -42 196 -140 156z"/>
<path d="M16323 6980 c-42 -25 -62 -85 -43 -129 21 -51 76 -76 135 -60 46 13
75 52 75 101 0 50 -13 74 -50 93 -39 20 -79 19 -117 -5z"/>
</g>
</svg>
